# xmcd CD database file
#
# Track frame offsets:
#	150
#	21404
#	48410
#	53738
#	73524
#	92403
#	102511
#	135097
#	164844
#	184090
#	205044
#	224676
#	246277
#
# Disc length: 3584 seconds
#
# Revision: 0
# Processed by: cddbd v1.5PL3 Copyright (c) Steve Scherf et al.
# Submitted via: CDex 1.51
#
DISCID=bb0dfe0d
DTITLE=Sojiro - 25th Anniversary  Best Selection Disc 1
DYEAR=2000
DGENRE=New Age
TTITLE0=[Japanese Titles]
TTITLE1=[Japanese Titles]
TTITLE2=[Japanese Titles]
TTITLE3=[Japanese Titles]
TTITLE4=[Japanese Titles]
TTITLE5=[Japanese Titles]
TTITLE6=[Japanese Titles]
TTITLE7=[Japanese Titles]
TTITLE8=[Japanese Titles]
TTITLE9=[Japanese Titles]
TTITLE10=[Japanese Titles]
TTITLE11=[Japanese Titles]
TTITLE12=[Japanese Titles]
EXTD=YEAR: 2000
EXTT0=
EXTT1=
EXTT2=
EXTT3=
EXTT4=
EXTT5=
EXTT6=
EXTT7=
EXTT8=
EXTT9=
EXTT10=
EXTT11=
EXTT12=
PLAYORDER=
